<?xml version="1.0" encoding="UTF-8" standalone="no"?>
<!-- Created with Inkscape (http://www.inkscape.org/) -->

<svg
   xmlns:dc="http://purl.org/dc/elements/1.1/"
   xmlns:cc="http://creativecommons.org/ns#"
   xmlns:rdf="http://www.w3.org/1999/02/22-rdf-syntax-ns#"
   xmlns:svg="http://www.w3.org/2000/svg"
   xmlns="http://www.w3.org/2000/svg"
   xmlns:sodipodi="http://sodipodi.sourceforge.net/DTD/sodipodi-0.dtd"
   xmlns:inkscape="http://www.inkscape.org/namespaces/inkscape"
   width="111.43602mm"
   height="29.06426mm"
   viewBox="0 0 111.43602 29.064261"
   version="1.1"
   id="svg151"
   inkscape:version="0.92.4 (unknown)"
   sodipodi:docname="logo.svg">
  <defs
     id="defs145" />
  <sodipodi:namedview
     id="base"
     pagecolor="#ffffff"
     bordercolor="#666666"
     borderopacity="1.0"
     inkscape:pageopacity="0.0"
     inkscape:pageshadow="2"
     inkscape:zoom="1.4"
     inkscape:cx="243.40602"
     inkscape:cy="-44.841909"
     inkscape:document-units="mm"
     inkscape:current-layer="layer1"
     showgrid="false"
     inkscape:window-width="1290"
     inkscape:window-height="736"
     inkscape:window-x="206"
     inkscape:window-y="201"
     inkscape:window-maximized="0" />
  <metadata
     id="metadata148">
    <rdf:RDF>
      <cc:Work
         rdf:about="">
        <dc:format>image/svg+xml</dc:format>
        <dc:type
           rdf:resource="http://purl.org/dc/dcmitype/StillImage" />
        <dc:title />
      </cc:Work>
    </rdf:RDF>
  </metadata>
  <g
     inkscape:label="Layer 1"
     inkscape:groupmode="layer"
     id="layer1"
     transform="translate(0.06674982,-0.00796204)">
    <g
       aria-label="20"
       style="font-style:normal;font-variant:normal;font-weight:normal;font-stretch:normal;font-size:15.71003532px;line-height:1.25;font-family:'Oswald Regular';-inkscape-font-specification:'Oswald Regular, ';font-variant-ligatures:normal;font-variant-position:normal;font-variant-caps:normal;font-variant-numeric:normal;font-variant-alternates:normal;font-feature-settings:normal;text-indent:0;text-align:start;text-decoration:none;text-decoration-line:none;text-decoration-style:solid;text-decoration-color:#000000;letter-spacing:0px;word-spacing:0px;text-transform:none;writing-mode:lr-tb;direction:ltr;text-orientation:mixed;dominant-baseline:auto;baseline-shift:baseline;text-anchor:start;white-space:normal;shape-padding:0;opacity:1;vector-effect:none;fill:#ffefbf;fill-opacity:1;stroke:none;stroke-width:0.39275083;stroke-linecap:butt;stroke-linejoin:miter;stroke-miterlimit:4;stroke-dasharray:none;stroke-dashoffset:0;stroke-opacity:1"
       id="text12-0">
      <path
         d="m 97.477239,13.06764 v -1.196663 l 3.237131,-5.0474621 q 0.0997,-0.1534183 0.33752,-0.5216222 0.24547,-0.3758749 0.33752,-0.5292932 0.0997,-0.1610892 0.26848,-0.4832677 0.16876,-0.3221785 0.2378,-0.5523059 0.069,-0.2301275 0.1304,-0.5599769 0.0614,-0.3298493 0.0614,-0.6750406 0,-1.8947161 -1.2657,-1.8947161 -1.511172,0 -1.511172,2.3473002 v 0.4219003 h -1.67993 V 3.9469216 q 0,-1.7949943 0.736408,-2.7538588 0.736407,-0.96653535 2.362644,-0.96653535 1.51884,0 2.28593,0.85914255 0.76709,0.8591426 0.76709,2.4316803 0,0.5599768 -0.0921,1.0279027 -0.0844,0.4679258 -0.30684,0.9435226 -0.22245,0.4679259 -0.38354,0.7364079 -0.16109,0.2684821 -0.51395,0.8131171 -0.069,0.099722 -0.0997,0.1534183 l -2.922624,4.4644731 h 4.019564 v 1.411448 z"
         style="font-style:normal;font-variant:normal;font-weight:normal;font-stretch:normal;font-size:15.71003532px;line-height:1.25;font-family:'Oswald Regular';-inkscape-font-specification:'Oswald Regular, ';font-variant-ligatures:normal;font-variant-position:normal;font-variant-caps:normal;font-variant-numeric:normal;font-variant-alternates:normal;font-feature-settings:normal;text-indent:0;text-align:start;text-decoration:none;text-decoration-line:none;text-decoration-style:solid;text-decoration-color:#000000;letter-spacing:0px;word-spacing:0px;text-transform:none;writing-mode:lr-tb;direction:ltr;text-orientation:mixed;dominant-baseline:auto;text-anchor:start;white-space:normal;shape-padding:0;vector-effect:none;fill:#ffefbf;fill-opacity:1;stroke:none;stroke-width:0.39275083;stroke-linecap:butt;stroke-linejoin:miter;stroke-miterlimit:4;stroke-dasharray:none;stroke-dashoffset:0;stroke-opacity:1"
         id="path47"
         inkscape:connector-curvature="0" />
      <path
         d="m 108.21652,13.205717 q -1.55719,0 -2.35497,-1.020232 -0.7901,-1.027903 -0.7901,-2.7385169 V 3.9776052 q 0,-1.7566397 0.77476,-2.7538587 0.77476,-0.99721905 2.37031,-0.99721905 1.58788,0 2.37031,1.00488995 0.78244,0.997219 0.78244,2.7461878 v 5.4693629 q 0,1.7259559 -0.79011,2.7461879 -0.7901,1.012561 -2.36264,1.012561 z m -1.45747,-3.7434071 q 0,2.3626421 1.45747,2.3626421 1.45748,0 1.45748,-2.3626421 V 3.9622634 q 0,-0.5139514 -0.0614,-0.8974971 -0.0537,-0.3912167 -0.20712,-0.736408 -0.15341,-0.3528621 -0.45258,-0.5369641 -0.29917,-0.1917728 -0.73641,-0.1917728 -0.43724,0 -0.73641,0.1917728 -0.29916,0.184102 -0.45258,0.5369641 -0.15342,0.3451913 -0.21479,0.736408 -0.0537,0.3835457 -0.0537,0.8974971 z"
         style="font-style:normal;font-variant:normal;font-weight:normal;font-stretch:normal;font-size:15.71003532px;line-height:1.25;font-family:'Oswald Regular';-inkscape-font-specification:'Oswald Regular, ';font-variant-ligatures:normal;font-variant-position:normal;font-variant-caps:normal;font-variant-numeric:normal;font-variant-alternates:normal;font-feature-settings:normal;text-indent:0;text-align:start;text-decoration:none;text-decoration-line:none;text-decoration-style:solid;text-decoration-color:#000000;letter-spacing:0px;word-spacing:0px;text-transform:none;writing-mode:lr-tb;direction:ltr;text-orientation:mixed;dominant-baseline:auto;text-anchor:start;white-space:normal;shape-padding:0;vector-effect:none;fill:#ffefbf;fill-opacity:1;stroke:none;stroke-width:0.39275083;stroke-linecap:butt;stroke-linejoin:miter;stroke-miterlimit:4;stroke-dasharray:none;stroke-dashoffset:0;stroke-opacity:1"
         id="path49"
         inkscape:connector-curvature="0" />
    </g>
    <g
       aria-label="race"
       style="font-style:normal;font-variant:normal;font-weight:normal;font-stretch:normal;font-size:20.58374405px;line-height:1.25;font-family:'Rubik Mono One';-inkscape-font-specification:'Rubik Mono One';letter-spacing:0px;word-spacing:0px;fill:#ffefbf;fill-opacity:1;stroke:none;stroke-width:0.5145936"
       id="text12-5-56">
      <path
         d="m 15.056068,13.984324 q 0.04117,0.08233 0.04117,0.226421 0,0.144087 -0.144086,0.288173 -0.123502,0.123502 -0.308756,0.123502 H 9.9718832 q -0.6175123,0 -0.8645173,-0.514593 L 7.2959965,10.032245 H 5.566962 v 4.034414 q 0,0.226421 -0.16467,0.391091 -0.16467,0.16467 -0.3910911,0.16467 H 0.56511215 q -0.22642119,0 -0.39109114,-0.16467 Q 0.00935106,14.29308 0.00935106,14.066659 V 0.76956057 q 0,-0.22642119 0.16466995,-0.39109114 Q 0.33869096,0.21379948 0.56511215,0.21379948 H 8.5721886 q 2.8199734,0 4.4666724,1.33794332 1.6467,1.3379434 1.6467,3.6433227 0,2.7993892 -2.161294,4.0549976 z M 5.566962,4.0423759 V 6.2242527 H 8.13993 q 0.4528423,0 0.6998473,-0.2881724 0.2470049,-0.3087561 0.2470049,-0.7615985 0,-0.4528424 -0.2470049,-0.7821823 Q 8.6133561,4.0423759 8.13993,4.0423759 Z"
         style="fill:#ffefbf;fill-opacity:1;stroke-width:0.5145936"
         id="path18"
         inkscape:connector-curvature="0" />
      <path
         d="m 20.482136,14.62242 h -3.890328 q -0.185253,0 -0.32934,-0.123502 -0.123502,-0.144086 -0.123502,-0.267589 0,-0.123502 0.02058,-0.185254 L 20.646806,0.89306303 Q 20.83206,0.21379948 21.573074,0.21379948 h 5.722281 q 0.741015,0 0.926269,0.67926355 L 32.70888,14.046075 q 0.02058,0.06175 0.02058,0.185254 0,0.123503 -0.144087,0.267589 -0.123502,0.123502 -0.308756,0.123502 H 28.38629 q -0.65868,0 -0.926269,-0.699847 L 26.945428,12.481711 H 21.922994 L 21.4084,13.922573 Q 21.140816,14.62242 20.482136,14.62242 Z M 25.895661,8.4678808 24.434215,4.1864621 22.972769,8.4678808 Z"
         style="fill:#ffefbf;fill-opacity:1;stroke-width:0.5145936"
         id="path20"
         inkscape:connector-curvature="0" />
      <path
         d="m 39.966901,5.7714104 v 3.293399 q 0,0.8439335 0.555761,1.2967756 0.576345,0.452843 1.48203,0.452843 0.926268,0 1.337943,-0.288173 0.411675,-0.288172 0.679264,-0.8439333 0.288172,-0.5557611 0.741015,-0.5557611 h 4.446088 q 0.185254,0 0.308756,0.1440863 0.144087,0.1235024 0.144087,0.3087561 0,1.914288 -1.81137,3.499237 -0.905685,0.782182 -2.408298,1.276192 -1.502613,0.473426 -3.540404,0.473426 -2.037791,0 -3.725658,-0.617513 Q 36.508832,13.572649 35.459061,12.152371 34.40929,10.711509 34.40929,8.6325508 V 6.203669 q 0,-2.0789582 1.049771,-3.5198202 1.97604,-2.67588676 6.607382,-2.67588676 1.873121,0 3.375734,0.49400985 1.502613,0.47342612 2.408298,1.25560841 1.81137,1.5849483 1.81137,3.4992365 0,0.1852537 -0.144087,0.3293399 -0.123502,0.1235024 -0.308756,0.1235024 h -4.446088 q -0.452843,0 -0.741015,-0.5557611 Q 43.75431,4.598137 43.342635,4.3099645 42.93096,4.0217921 42.004692,4.0217921 q -0.905685,0 -1.48203,0.4528424 -0.555761,0.4528424 -0.555761,1.2967759 z"
         style="fill:#ffefbf;fill-opacity:1;stroke-width:0.5145936"
         id="path22"
         inkscape:connector-curvature="0" />
      <path
         d="m 57.804965,10.60859 h 8.212914 q 0.226421,0 0.391091,0.16467 0.16467,0.16467 0.16467,0.391091 v 2.902308 q 0,0.226421 -0.16467,0.391091 -0.16467,0.16467 -0.391091,0.16467 H 53.008953 q -0.226422,0 -0.391092,-0.16467 -0.16467,-0.16467 -0.16467,-0.391091 V 0.76956057 q 0,-0.22642119 0.16467,-0.39109114 0.16467,-0.16466995 0.391092,-0.16466995 h 12.803088 q 0.226422,0 0.391091,0.16466995 0.16467,0.16466995 0.16467,0.39109114 V 3.6718685 q 0,0.2264212 -0.16467,0.3910911 -0.164669,0.16467 -0.391091,0.16467 h -8.007076 v 1.2967758 h 6.87497 q 0.226422,0 0.391092,0.16467 0.16467,0.1646699 0.16467,0.3910911 v 2.6758868 q 0,0.2264211 -0.16467,0.3910911 -0.16467,0.1646699 -0.391092,0.1646699 h -6.87497 z"
         style="fill:#ffefbf;fill-opacity:1;stroke-width:0.5145936"
         id="path24"
         inkscape:connector-curvature="0" />
    </g>
    <g
       aria-label="In"
       style="font-style:normal;font-variant:normal;font-weight:normal;font-stretch:normal;font-size:10.38866615px;line-height:1.25;font-family:'Rubik Mono One';-inkscape-font-specification:'Rubik Mono One';letter-spacing:0px;word-spacing:0px;fill:#ffefbf;fill-opacity:1;stroke:none;stroke-width:0.25971666"
       id="text12-5-5-2">
      <path
         d="m 81.645944,9.5015788 h -1.880349 v 3.0127132 h 1.880349 q 0.114275,0 0.197384,0.08311 0.08311,0.08311 0.08311,0.197385 v 1.568689 q 0,0.114275 -0.08311,0.197384 -0.08311,0.08311 -0.197384,0.08311 h -6.586415 q -0.114275,0 -0.197384,-0.08311 -0.08311,-0.08311 -0.08311,-0.197384 v -1.568689 q 0,-0.114275 0.08311,-0.197385 0.08311,-0.08311 0.197384,-0.08311 h 1.901126 V 9.5015788 h -1.901126 q -0.114275,0 -0.197384,-0.083109 -0.08311,-0.083109 -0.08311,-0.1973846 V 7.6523963 q 0,-0.1142754 0.08311,-0.1973847 0.08311,-0.083109 0.197384,-0.083109 h 6.586415 q 0.114275,0 0.197384,0.083109 0.08311,0.083109 0.08311,0.1973847 v 1.5686886 q 0,0.1142753 -0.08311,0.1973846 -0.08311,0.083109 -0.197384,0.083109 z"
         style="fill:#ffefbf;fill-opacity:1;stroke-width:0.25971666"
         id="path27"
         inkscape:connector-curvature="0" />
      <path
         d="m 88.498405,7.3719023 h 1.932292 q 0.114276,0 0.197385,0.083109 0.08311,0.083109 0.08311,0.1973847 v 6.711079 q 0,0.114275 -0.08311,0.197384 -0.08311,0.08311 -0.197385,0.08311 h -1.672575 q -0.249328,0 -0.415547,-0.218162 l -2.264729,-2.88805 v 2.825718 q 0,0.114275 -0.08311,0.197384 -0.08311,0.08311 -0.197385,0.08311 H 83.86506 q -0.114275,0 -0.197384,-0.08311 -0.08311,-0.08311 -0.08311,-0.197384 V 7.6523963 q 0,-0.1142754 0.08311,-0.1973847 0.08311,-0.083109 0.197384,-0.083109 h 1.682964 q 0.249328,0 0.405158,0.2077733 l 2.264729,3.1269881 V 7.6523963 q 0,-0.1142754 0.08311,-0.1973847 0.08311,-0.083109 0.197384,-0.083109 z"
         style="fill:#ffefbf;fill-opacity:1;stroke-width:0.25971666"
         id="path29"
         inkscape:connector-curvature="0" />
    </g>
    <g
       aria-label="BRITAIN"
       style="font-style:normal;font-variant:normal;font-weight:normal;font-stretch:normal;font-size:15.71771812px;line-height:1.25;font-family:'Rubik Mono One';-inkscape-font-specification:'Rubik Mono One';letter-spacing:0px;word-spacing:0px;fill:#ffefbf;fill-opacity:1;stroke:none;stroke-width:0.39294294"
       id="text63-0">
      <path
         d="m 11.265725,25.61432 q 0,3.457898 -4.4323966,3.457898 H 0.35762857 q -0.1728949,0 -0.29863664,-0.125742 -0.12574175,-0.125742 -0.12574175,-0.298636 V 18.494194 q 0,-0.172895 0.12574175,-0.298637 0.12574174,-0.125742 0.29863664,-0.125742 H 6.6761513 q 2.2319159,0 3.285003,0.817322 1.0688047,0.801603 1.0688047,2.436246 v 0.04715 q 0,0.754451 -0.40866,1.288853 -0.408661,0.534402 -0.8487573,0.675862 0.6129913,0.188612 1.0530873,0.833039 0.440096,0.628709 0.440096,1.44603 z M 4.0198569,24.828434 V 26.36877 H 6.298926 q 0.3615075,0 0.5344024,-0.235765 0.1886127,-0.251484 0.1886127,-0.55012 v -0.01572 q 0,-0.298637 -0.2043304,-0.518685 Q 6.6289981,24.828434 6.298926,24.828434 Z m 2.5777058,-2.844907 q 0.1728949,-0.235766 0.1728949,-0.518685 0,-0.282919 -0.1728949,-0.487249 -0.1571772,-0.20433 -0.4715316,-0.20433 H 4.0198569 v 1.430312 h 2.1061742 q 0.3143544,0 0.4715316,-0.220048 z"
         style="fill:#ffefbf;fill-opacity:1;stroke-width:0.39294294"
         id="path32"
         inkscape:connector-curvature="0" />
      <path
         d="m 24.871129,28.584969 q 0.03144,0.06287 0.03144,0.172895 0,0.110024 -0.110024,0.220048 -0.09431,0.09431 -0.235766,0.09431 h -3.567922 q -0.471532,0 -0.660144,-0.392943 L 18.94555,25.567167 h -1.320289 v 3.080673 q 0,0.172894 -0.125741,0.298636 -0.125742,0.125742 -0.298637,0.125742 h -3.395027 q -0.172895,0 -0.298637,-0.125742 -0.125742,-0.125742 -0.125742,-0.298636 V 18.494194 q 0,-0.172895 0.125742,-0.298637 0.125742,-0.125742 0.298637,-0.125742 h 6.114192 q 2.153328,0 3.410745,1.021652 1.257417,1.021652 1.257417,2.782036 0,2.13761 -1.65036,3.096391 z m -7.245868,-7.591658 v 1.666078 h 1.964715 q 0.34579,0 0.534403,-0.220048 0.188612,-0.235766 0.188612,-0.581556 0,-0.345789 -0.188612,-0.597273 -0.172895,-0.267201 -0.534403,-0.267201 z"
         style="fill:#ffefbf;fill-opacity:1;stroke-width:0.39294294"
         id="path34"
         inkscape:connector-curvature="0" />
      <path
         d="m 36.967633,21.291947 h -2.844907 v 4.558139 h 2.844907 q 0.172895,0 0.298637,0.125741 0.125741,0.125742 0.125741,0.298637 v 2.373376 q 0,0.172894 -0.125741,0.298636 -0.125742,0.125742 -0.298637,0.125742 H 27.0026 q -0.172895,0 -0.298637,-0.125742 -0.125742,-0.125742 -0.125742,-0.298636 v -2.373376 q 0,-0.172895 0.125742,-0.298637 0.125742,-0.125741 0.298637,-0.125741 h 2.876342 V 21.291947 H 27.0026 q -0.172895,0 -0.298637,-0.125741 -0.125742,-0.125742 -0.125742,-0.298637 v -2.373375 q 0,-0.172895 0.125742,-0.298637 0.125742,-0.125742 0.298637,-0.125742 h 9.965033 q 0.172895,0 0.298637,0.125742 0.125741,0.125742 0.125741,0.298637 v 2.373375 q 0,0.172895 -0.125741,0.298637 -0.125742,0.125741 -0.298637,0.125741 z"
         style="fill:#ffefbf;fill-opacity:1;stroke-width:0.39294294"
         id="path36"
         inkscape:connector-curvature="0" />
      <path
         d="m 39.916425,18.069815 h 10.845226 q 0.172895,0 0.298637,0.125742 0.125741,0.125742 0.125741,0.298637 v 2.530552 q 0,0.172895 -0.125741,0.298637 -0.125742,0.125742 -0.298637,0.125742 h -3.37931 v 7.198715 q 0,0.172894 -0.125741,0.298636 -0.125742,0.125742 -0.298637,0.125742 h -3.23785 q -0.172895,0 -0.298637,-0.125742 -0.125741,-0.125742 -0.125741,-0.298636 v -7.198715 h -3.37931 q -0.172895,0 -0.298636,-0.125742 -0.125742,-0.125742 -0.125742,-0.298637 v -2.530552 q 0,-0.172895 0.125742,-0.298637 0.125741,-0.125742 0.298636,-0.125742 z"
         style="fill:#ffefbf;fill-opacity:1;stroke-width:0.39294294"
         id="path38"
         inkscape:connector-curvature="0" />
      <path
         d="m 55.722309,29.072218 h -2.970648 q -0.14146,0 -0.251484,-0.09431 -0.09431,-0.110024 -0.09431,-0.204331 0,-0.09431 0.01572,-0.141459 L 55.848051,18.5885 q 0.14146,-0.518685 0.707297,-0.518685 h 4.369526 q 0.565838,0 0.707297,0.518685 l 3.426463,10.043622 q 0.01572,0.04715 0.01572,0.141459 0,0.09431 -0.110024,0.204331 -0.09431,0.09431 -0.235766,0.09431 h -2.970649 q -0.502967,0 -0.707297,-0.534402 L 60.657673,27.437575 H 56.82255 l -0.392943,1.100241 q -0.204331,0.534402 -0.707298,0.534402 z m 4.13376,-4.699598 -1.115958,-3.269285 -1.115958,3.269285 z"
         style="fill:#ffefbf;fill-opacity:1;stroke-width:0.39294294"
         id="path40"
         inkscape:connector-curvature="0" />
      <path
         d="m 77.029399,21.291947 h -2.844907 v 4.558139 h 2.844907 q 0.172894,0 0.298636,0.125741 0.125742,0.125742 0.125742,0.298637 v 2.373376 q 0,0.172894 -0.125742,0.298636 -0.125742,0.125742 -0.298636,0.125742 h -9.965034 q -0.172895,0 -0.298636,-0.125742 -0.125742,-0.125742 -0.125742,-0.298636 v -2.373376 q 0,-0.172895 0.125742,-0.298637 0.125741,-0.125741 0.298636,-0.125741 h 2.876343 v -4.558139 h -2.876343 q -0.172895,0 -0.298636,-0.125741 -0.125742,-0.125742 -0.125742,-0.298637 v -2.373375 q 0,-0.172895 0.125742,-0.298637 0.125741,-0.125742 0.298636,-0.125742 h 9.965034 q 0.172894,0 0.298636,0.125742 0.125742,0.125742 0.125742,0.298637 v 2.373375 q 0,0.172895 -0.125742,0.298637 -0.125742,0.125741 -0.298636,0.125741 z"
         style="fill:#ffefbf;fill-opacity:1;stroke-width:0.39294294"
         id="path42"
         inkscape:connector-curvature="0" />
      <path
         d="m 87.396952,18.069815 h 2.923496 q 0.172895,0 0.298636,0.125742 0.125742,0.125742 0.125742,0.298637 V 28.64784 q 0,0.172894 -0.125742,0.298636 -0.125741,0.125742 -0.298636,0.125742 h -2.530553 q -0.377225,0 -0.628709,-0.330072 L 83.734724,24.37262 v 4.27522 q 0,0.172894 -0.125742,0.298636 -0.125742,0.125742 -0.298637,0.125742 H 80.38685 q -0.172895,0 -0.298637,-0.125742 -0.125742,-0.125742 -0.125742,-0.298636 V 18.494194 q 0,-0.172895 0.125742,-0.298637 0.125742,-0.125742 0.298637,-0.125742 h 2.54627 q 0.377225,0 0.612991,0.314355 l 3.426463,4.731033 v -4.621009 q 0,-0.172895 0.125741,-0.298637 0.125742,-0.125742 0.298637,-0.125742 z"
         style="fill:#ffefbf;fill-opacity:1;stroke-width:0.39294294"
         id="path44"
         inkscape:connector-curvature="0" />
    </g>
    <g
       aria-label="19"
       style="font-style:normal;font-variant:normal;font-weight:normal;font-stretch:normal;font-size:16.17538452px;line-height:1.25;font-family:'Oswald Regular';-inkscape-font-specification:'Oswald Regular, ';font-variant-ligatures:normal;font-variant-position:normal;font-variant-caps:normal;font-variant-numeric:normal;font-variant-alternates:normal;font-feature-settings:normal;text-indent:0;text-align:start;text-decoration:none;text-decoration-line:none;text-decoration-style:solid;text-decoration-color:#000000;letter-spacing:0px;word-spacing:0px;text-transform:none;writing-mode:lr-tb;direction:ltr;text-orientation:mixed;dominant-baseline:auto;baseline-shift:baseline;text-anchor:start;white-space:normal;shape-padding:0;opacity:1;vector-effect:none;fill:#ffefbf;fill-opacity:1;stroke:none;stroke-width:0.40438458;stroke-linecap:butt;stroke-linejoin:miter;stroke-miterlimit:4;stroke-dasharray:none;stroke-dashoffset:0;stroke-opacity:1"
       id="text12-0-7">
      <path
         d="M 99.77675,28.751127 V 17.906985 q -0.0079,0.0158 -0.142166,0.04739 -0.12637,0.03159 -0.331722,0.07898 -0.197453,0.03949 -0.434398,0.09478 -0.236944,0.04739 -0.481786,0.09478 -0.236944,0.03949 -0.434397,0.07898 -0.189556,0.03949 -0.323824,0.06319 l -0.134268,0.0237 v -1.311091 q 1.998228,-0.513379 2.701161,-1.421665 h 1.31109 V 28.75114 Z"
         style="font-style:normal;font-variant:normal;font-weight:normal;font-stretch:normal;font-size:16.17538452px;line-height:1.25;font-family:'Oswald Regular';-inkscape-font-specification:'Oswald Regular, ';font-variant-ligatures:normal;font-variant-position:normal;font-variant-caps:normal;font-variant-numeric:normal;font-variant-alternates:normal;font-feature-settings:normal;text-indent:0;text-align:start;text-decoration:none;text-decoration-line:none;text-decoration-style:solid;text-decoration-color:#000000;letter-spacing:0px;word-spacing:0px;text-transform:none;writing-mode:lr-tb;direction:ltr;text-orientation:mixed;dominant-baseline:auto;text-anchor:start;white-space:normal;shape-padding:0;vector-effect:none;fill:#ffefbf;fill-opacity:1;stroke:none;stroke-width:0.40438458;stroke-linecap:butt;stroke-linejoin:miter;stroke-miterlimit:4;stroke-dasharray:none;stroke-dashoffset:0;stroke-opacity:1"
         id="path52"
         inkscape:connector-curvature="0" />
      <path
         d="m 107.69068,22.258859 q 0.95568,0 1.48485,-0.89249 v -1.95084 q 0,-2.464218 -1.48485,-2.464218 -0.4107,0 -0.71873,0.197453 -0.30013,0.189555 -0.46599,0.537073 -0.16586,0.347518 -0.24484,0.76612 -0.0711,0.410703 -0.0711,0.924082 0,0.418601 0,0.663443 0.008,0.236944 0.0395,0.584462 0.0316,0.347518 0.0869,0.55287 0.0553,0.197453 0.16586,0.434397 0.11057,0.229046 0.26854,0.355417 0.15796,0.12637 0.3949,0.213249 0.23695,0.07898 0.54497,0.07898 z m 0.008,6.634435 q -1.53224,0 -2.36154,-0.837203 -0.82931,-0.8451 -0.853,-2.408932 -0.008,-0.03159 -0.008,-0.142166 h 1.73759 q 0,1.003063 0.32383,1.48485 0.32382,0.473888 1.16892,0.473888 1.46905,0 1.46905,-2.811737 v -1.982432 q -0.56076,0.900387 -1.91924,0.900387 -0.78982,0 -1.35059,-0.260638 -0.55286,-0.268537 -0.86879,-0.781916 -0.31593,-0.521277 -0.45809,-1.18472 -0.13427,-0.663444 -0.13427,-1.548035 0,-0.924082 0.18166,-1.674405 0.18165,-0.758221 0.56076,-1.342683 0.37911,-0.592361 1.01097,-0.916184 0.63974,-0.331722 1.49274,-0.331722 0.82931,0 1.45326,0.331722 0.63185,0.331721 1.01096,0.924082 0.37911,0.584462 0.56867,1.350581 0.18955,0.766119 0.18955,1.682303 v 4.407161 q 0,0.797712 -0.0948,1.469053 -0.0948,0.663444 -0.33173,1.2716 -0.22904,0.600259 -0.59236,1.01886 -0.35541,0.418601 -0.91618,0.663443 -0.56077,0.244843 -1.2795,0.244843 z"
         style="font-style:normal;font-variant:normal;font-weight:normal;font-stretch:normal;font-size:16.17538452px;line-height:1.25;font-family:'Oswald Regular';-inkscape-font-specification:'Oswald Regular, ';font-variant-ligatures:normal;font-variant-position:normal;font-variant-caps:normal;font-variant-numeric:normal;font-variant-alternates:normal;font-feature-settings:normal;text-indent:0;text-align:start;text-decoration:none;text-decoration-line:none;text-decoration-style:solid;text-decoration-color:#000000;letter-spacing:0px;word-spacing:0px;text-transform:none;writing-mode:lr-tb;direction:ltr;text-orientation:mixed;dominant-baseline:auto;text-anchor:start;white-space:normal;shape-padding:0;vector-effect:none;fill:#ffefbf;fill-opacity:1;stroke:none;stroke-width:0.40438458;stroke-linecap:butt;stroke-linejoin:miter;stroke-miterlimit:4;stroke-dasharray:none;stroke-dashoffset:0;stroke-opacity:1"
         id="path54"
         inkscape:connector-curvature="0" />
    </g>
    <rect
       id="rect97-6"
       width="1.1339285"
       height="28.844307"
       x="93.804695"
       y="0.21913601"
       style="fill:#ffefbf;fill-opacity:1;stroke-width:0.21368171"
       ry="0.56696427" />
  </g>
</svg>
